<svg xmlns="http://www.w3.org/2000/svg" version="1.1" viewBox="-5.0 -15.0 110.0 135.0"
fill="white" stroke="#FFFFFF" stroke-width="0.5">
 <path d="m73.898 37.562c-0.58984-0.61328-0.58203-1.5859 0.019531-2.1914 0.60156-0.60156 1.5781-0.60938 2.1914-0.015625l3.9648 3.9648c-0.92188-8.2969-4.6523-16.031-10.566-21.918-14.312-14.312-37.797-14.312-52.109 0s-14.312 37.797 0 52.109l0.003906-0.003907c6.8984 6.9258 16.277 10.812 26.055 10.801 0.85938 0 1.5547 0.69531 1.5547 1.5547s-0.69531 1.5547-1.5547 1.5547c-10.605 0.015625-20.773-4.1953-28.266-11.699-15.527-15.527-15.527-41 0-56.527s41-15.527 56.527 0c6.2969 6.2852 10.309 14.5 11.395 23.332l3.6484-5.6211c0.46875-0.72266 1.4336-0.92578 2.1523-0.45703 0.72266 0.46875 0.92969 1.4297 0.46094 2.1523l-6.1367 9.4609c-0.23438 0.43359-0.66016 0.73438-1.1484 0.80469-0.49219 0.074219-0.98438-0.089843-1.332-0.44141zm-9.5625 34.148 3.4492 3.4492v0.003906c0.28906 0.29297 0.6875 0.45703 1.1016 0.46094 0.41406 0 0.8125-0.16406 1.1055-0.45703l0.003906 0.003906 6.8984-6.9023c0.59375-0.61328 0.58594-1.5898-0.015625-2.1953-0.60547-0.60156-1.582-0.60938-2.1953-0.015625l-5.7969 5.8008-2.3398-2.3438c-0.60938-0.60938-1.5938-0.61328-2.207-0.003906-0.60938 0.60547-0.60938 1.5898-0.003906 2.2031zm6.2812-14.32h-0.003907c-5.3477 0-10.168 3.2227-12.215 8.1641-2.0469 4.9414-0.91406 10.629 2.8672 14.41s9.4688 4.9141 14.41 2.8672c4.9414-2.0469 8.1602-6.8711 8.1602-12.219 0-7.3008-5.918-13.223-13.223-13.223zm0 3.125h-0.003907c-4.082 0-7.7656 2.4609-9.3281 6.2344s-0.69922 8.1172 2.1875 11.004c2.8906 2.8867 7.2344 3.7539 11.008 2.1875 3.7734-1.5625 6.2305-5.2422 6.2305-9.3281 0-2.6758-1.0625-5.2461-2.957-7.1406-1.8945-1.8906-4.4609-2.957-7.1406-2.957zm22.711 12.496v-4.793h-3.8281c-0.78125 0-1.4414-0.57812-1.5469-1.3516-0.45703-2.1172-1.3047-4.1367-2.4922-5.9492-0.40625-0.62109-0.32031-1.4375 0.20312-1.9609l2.707-2.707-3.3906-3.3906-2.707 2.707c-0.54297 0.54297-1.3984 0.61328-2.0195 0.16406-1.6719-1.1445-4.0039-2.0586-6-2.4766h0.003906c-0.72266-0.14844-1.2422-0.78516-1.2422-1.5234h-0.003906v-3.8281h-4.793v3.8281c0 0.78125-0.57812 1.4414-1.3516 1.5469-2.1172 0.45703-4.1367 1.3008-5.9492 2.4922-0.62109 0.40234-1.4375 0.32031-1.9609-0.20312l-2.707-2.707-3.3906 3.3906 2.707 2.707c0.54297 0.53906 0.61328 1.3945 0.16406 2.0156-1.1445 1.6719-2.0586 4.0039-2.4766 6h0.003906c-0.15234 0.72266-0.78906 1.2383-1.5273 1.2422v0.003906h-3.8281v4.793h3.8281c0.78125 0 1.4414 0.57422 1.5469 1.3477 0.45703 2.1211 1.3008 4.1406 2.4922 5.9531 0.40234 0.61719 0.32031 1.4336-0.20312 1.957l-2.707 2.7109 3.3906 3.3906 2.707-2.707v-0.003906c0.54297-0.53906 1.3945-0.60938 2.0156-0.16406 1.6719 1.1445 4.0039 2.0586 6 2.4766 0.72266 0.15234 1.2422 0.78906 1.2422 1.5273h0.003906v3.8281h4.793v-3.8281c0-0.78125 0.57422-1.4414 1.3477-1.5469 2.1211-0.45703 4.1406-1.3047 5.9531-2.4922 0.61719-0.40234 1.4336-0.32031 1.957 0.20312l2.7109 2.707 3.3906-3.3906-2.707-2.707h-0.003906c-0.53906-0.54297-0.60938-1.3984-0.16016-2.0195 1.1445-1.6719 2.0586-4.0039 2.4766-6l-0.003906 0.003906c0.15234-0.72266 0.78906-1.2422 1.5273-1.2422v-0.003906zm3.125-6.3555c0-0.41406-0.16406-0.8125-0.45703-1.1055-0.29297-0.29297-0.69141-0.45703-1.1055-0.45703h-4.1641c-0.46094-1.6758-1.125-3.2852-1.9883-4.7969l2.9453-2.9453c0.61328-0.60937 0.61328-1.5977 0-2.207l-5.6016-5.6016h0.003907c-0.60938-0.60938-1.6016-0.60938-2.2109 0l-2.9453 2.9453c-1.5078-0.85938-3.1172-1.5273-4.793-1.9844v-4.1641c0-0.41406-0.16406-0.8125-0.45703-1.1055-0.29297-0.29297-0.69141-0.45703-1.1055-0.45703h-2.3008v-5.7695c0-0.41406-0.16406-0.80859-0.45703-1.1016-0.29297-0.29297-0.69141-0.46094-1.1055-0.46094h-4.8203c-0.52734-1.9609-1.3086-3.8438-2.3242-5.6016l3.4102-3.4102v-0.003906c0.60938-0.60938 0.60938-1.5977 0-2.207l-6.2891-6.2891c-0.60938-0.60938-1.5977-0.60938-2.207 0l-3.4102 3.4102c-1.7578-1.0156-3.6445-1.7969-5.6055-2.3203v-4.8242c0-0.41406-0.16406-0.8125-0.45703-1.1055-0.29297-0.29297-0.69141-0.45703-1.1055-0.45703h-8.8945c-0.85937 0-1.5625 0.69922-1.5625 1.5625v4.8242c-1.9609 0.52344-3.8438 1.3047-5.6055 2.3203l-3.4102-3.4102c-0.60938-0.60938-1.5977-0.60938-2.207 0l-6.2891 6.2891c-0.60938 0.60938-0.60938 1.5977 0 2.207l3.4102 3.4102c-1.0156 1.7578-1.7969 3.6445-2.3203 5.6055h-4.8242c-0.86328 0-1.5625 0.69922-1.5625 1.5625v8.8906c0 0.41406 0.16406 0.8125 0.45703 1.1055 0.29297 0.29297 0.69141 0.45703 1.1055 0.45703h4.8242c0.52344 1.9648 1.3047 3.8477 2.3203 5.6094l-3.4102 3.4102c-0.60938 0.60938-0.60938 1.5977 0 2.207l6.2891 6.2891c0.60938 0.60938 1.5977 0.60938 2.207 0l3.4102-3.4102c1.7578 1.0156 3.6445 1.7969 5.6055 2.3203v4.8242c0 0.41406 0.16406 0.8125 0.45703 1.1055 0.29297 0.29297 0.69141 0.45703 1.1055 0.45703h5.7656v2.3008c0 0.41406 0.16797 0.8125 0.46094 1.1055 0.29297 0.29297 0.6875 0.45703 1.1016 0.45703h4.168c0.45703 1.6758 1.125 3.2852 1.9844 4.793l-2.9453 2.9453c-0.60938 0.60938-0.60938 1.5977 0 2.2109l5.5977 5.6016 0.003906-0.003906c0.60938 0.60938 1.5977 0.60938 2.207 0l2.9453-2.9453c1.5078 0.85938 3.1211 1.5273 4.793 1.9883l0.003906 4.1641c0 0.41406 0.16406 0.8125 0.45703 1.1055 0.29297 0.29297 0.6875 0.45703 1.1055 0.45703h7.918c0.41406 0 0.8125-0.16406 1.1055-0.45703 0.29297-0.29297 0.45703-0.69141 0.45703-1.1055v-4.1641c1.6758-0.46094 3.2852-1.125 4.793-1.9883l2.9453 2.9453c0.60938 0.61328 1.6016 0.61328 2.2109 0l5.6016-5.6016-0.003906 0.003907c0.61328-0.60938 0.61328-1.6016 0-2.2109l-2.9453-2.9453c0.86328-1.5078 1.5273-3.1172 1.9883-4.793h4.1641c0.41406 0 0.8125-0.16406 1.1055-0.45703 0.29297-0.29297 0.45703-0.69141 0.45703-1.1055zm-51.676 2.4922v-2.4922c0-0.86328 0.69922-1.5625 1.5625-1.5625h4.1641c0.45703-1.6758 1.125-3.2852 1.9844-4.7969l-2.9453-2.9453c-0.125-0.12109-0.22656-0.26953-0.30469-0.42969-4.2031 1.8047-9.0078 1.5391-12.988-0.71094-3.9805-2.2539-6.6797-6.2383-7.293-10.773-0.61719-4.5312 0.92188-9.0898 4.1562-12.324s7.793-4.7734 12.324-4.1562c4.5352 0.61719 8.5195 3.3125 10.77 7.293 2.2539 3.9805 2.5195 8.7852 0.71484 12.988v0.003907c0.16016 0.074218 0.30469 0.17578 0.42969 0.30469l2.9453 2.9453v-0.003907c1.5117-0.85938 3.1211-1.5273 4.7969-1.9844v-4.1641c0-0.86328 0.69922-1.5625 1.5625-1.5625h2.4922v-4.207h-4.4883v-0.003906 0.003906c-0.73828-0.003906-1.3789-0.51953-1.5273-1.2422-0.47266-2.2656-1.5117-4.9102-2.8125-6.8086-0.44531-0.62109-0.375-1.4766 0.16406-2.0156l3.1758-3.1758-4.0781-4.0781-3.1758 3.1758c-0.51953 0.52344-1.3398 0.60547-1.957 0.20312-2.0586-1.3516-4.3516-2.3086-6.7617-2.8281-0.77344-0.10547-1.3477-0.76562-1.3477-1.5469v-4.4922h-5.7695v4.4883h-0.003906 0.003906c-0.003906 0.73828-0.51953 1.3789-1.2422 1.5273-2.2656 0.47266-4.9102 1.5117-6.8086 2.8125-0.62109 0.44531-1.4766 0.375-2.0156-0.16406l-3.1758-3.1758-4.0781 4.0781 3.1758 3.1758c0.52344 0.52344 0.60547 1.3398 0.20312 1.957-1.3516 2.0586-2.3086 4.3516-2.8281 6.7617-0.10547 0.77344-0.76562 1.3477-1.5469 1.3477h-4.4922v5.7656h4.4883v0.003906c0.73828 0 1.3789 0.51953 1.5273 1.2422 0.47266 2.2656 1.5117 4.9102 2.8125 6.8086 0.44531 0.62109 0.375 1.4727-0.16406 2.0156l-3.1758 3.1758 4.0781 4.0781 3.1758-3.1758c0.51953-0.52344 1.3398-0.60547 1.957-0.20312 2.0586 1.3516 4.3516 2.3086 6.7617 2.8281 0.77344 0.10547 1.3477 0.76562 1.3477 1.5469v4.4922zm-12.852-25.695c0 4.6641 2.8086 8.8711 7.1172 10.652 4.3086 1.7852 9.2656 0.80078 12.566-2.4961 3.2969-3.2969 4.2812-8.2578 2.4961-12.566-1.7812-4.3086-5.9883-7.1172-10.648-7.1172-3.0586 0-5.9922 1.2148-8.1562 3.375-2.1602 2.1641-3.375 5.0977-3.375 8.1523z" fill-rule="evenodd"/>
</svg>