<?xml version="1.0" encoding="utf-8"?>
<!-- Generator: Adobe Illustrator 28.0.0, SVG Export Plug-In . SVG Version: 6.00 Build 0)  -->
<svg version="1.1" id="Layer_1" xmlns="http://www.w3.org/2000/svg" xmlns:xlink="http://www.w3.org/1999/xlink" x="0px" y="0px"
	 viewBox="0 0 1116.6 261.5" style="enable-background:new 0 0 1116.6 261.5;" xml:space="preserve">
<style type="text/css">
	.st0{fill:#FFFFFF;}
	.st1{fill:url(#SVGID_1_);}
	.st2{fill:url(#SVGID_00000114050613424585953980000004748150773678933923_);}
	.st3{fill:url(#SVGID_00000163033290022530367280000007029944701127492515_);}
	.st4{fill:url(#SVGID_00000082347081796233054370000014347679477223316359_);}
	.st5{fill:url(#SVGID_00000132785955833307661430000009761620137858074263_);}
	.st6{fill:url(#SVGID_00000000915687264593739530000016305123943120899988_);}
	.st7{fill:url(#SVGID_00000026139966092379890720000016974075442833952431_);}
	.st8{fill:url(#SVGID_00000104696974083443188100000003456530617384104606_);}
</style>
<g>
	<path class="st0" d="M302,242.8c-11.3,0-21.4-2.7-30.4-8.1c-9-5.4-16.1-12.8-21.2-22.2c-5.1-9.4-7.7-20-7.7-31.8
		c0-11.9,2.5-22.3,7.6-31.5c5-9.1,11.9-16.4,20.6-21.7c8.7-5.3,18.4-8,29.1-8c8.6,0,16.4,1.6,23.2,4.7c6.8,3.2,12.6,7.4,17.3,12.7
		c4.7,5.3,8.4,11.4,10.9,18.1c2.5,6.7,3.7,13.8,3.7,21.1c0,1.6-0.1,3.4-0.2,5.3c-0.1,1.9-0.4,3.7-0.9,5.5h-97.5v-16.7H343l-9.2,7.5
		c1.5-7.9,0.7-14.9-2.2-21c-2.9-6.1-7.1-10.9-12.6-14.5c-5.5-3.6-11.8-5.4-19-5.4c-7,0-13.5,1.8-19.3,5.5
		c-5.9,3.7-10.4,8.8-13.6,15.4c-3.2,6.6-4.5,14.3-3.9,23.3c-0.6,8.9,0.8,16.7,4.3,23.3c3.4,6.6,8.2,11.7,14.4,15.5
		c6.1,3.7,12.9,5.6,20.2,5.6c8,0,14.9-1.9,20.5-5.8c5.6-3.9,10.1-8.7,13.5-14.4l16,8.6c-2.2,5.3-5.7,10.1-10.6,14.5
		s-10.7,7.9-17.4,10.6C317.2,241.5,309.8,242.8,302,242.8z"/>
	<path class="st0" d="M376.4,240.2V122.1h19.1v23l-3.3-1.5c2.8-7.6,7.5-13.5,14-17.8c6.6-4.2,14.2-6.4,22.8-6.4
		c8.5,0,16.1,1.9,22.7,5.7s12,9,15.9,15.7c4,6.7,5.9,14.3,5.9,22.9v76.4h-19.5v-70c0-6.9-1.2-12.6-3.6-17.2
		c-2.4-4.6-5.8-8.2-10.2-10.8c-4.4-2.6-9.4-3.8-15.2-3.8c-5.7,0-10.8,1.3-15.1,3.8c-4.4,2.6-7.8,6.2-10.3,11
		c-2.5,4.8-3.7,10.4-3.7,17v70H376.4z"/>
	<path class="st0" d="M499.3,102.3V76.7h19.5v25.7H499.3z M499.3,240.2V122.1h19.5v118.1H499.3z"/>
	<path class="st0" d="M533,240.2l41.5-59.1l-41.3-59h23.3l35.8,51.8h-12.3l35.6-51.8h23.3l-41.3,59l41.1,59.1h-23.3l-35.3-51.8H592
		l-35.3,51.8H533z"/>
	<path class="st0" d="M658.7,240.2V76.7h11v153.7h74.6v9.9H658.7z"/>
	<path class="st0" d="M800.6,242.8c-7,0-13.4-1.4-19-4.1c-5.6-2.7-10.1-6.5-13.5-11.4c-3.4-4.9-5.1-10.6-5.1-17
		c0-5.3,1.2-10.4,3.6-15.3c2.4-4.9,6.4-9.2,11.9-12.8c5.5-3.7,12.8-6.2,22.1-7.7l48.3-8.1v9.4l-45,7.5c-11.4,1.9-19.4,5.3-23.9,10.1
		c-4.5,4.8-6.8,10.3-6.8,16.5c0,7.3,2.7,13.1,8.1,17.3c5.4,4.2,12.1,6.4,20.2,6.4c8.9,0,16.6-2.1,23.2-6.4
		c6.5-4.2,11.6-9.8,15.3-16.8c3.7-6.9,5.5-14.5,5.5-22.5v-27.9c0-8.6-3-15.6-8.9-20.7c-5.9-5.2-13.8-7.8-23.6-7.8
		c-7.5,0-14.3,1.8-20.6,5.5c-6.3,3.7-11.2,8.5-14.7,14.5l-8.8-4.6c2.2-4.4,5.5-8.5,9.8-12.2c4.3-3.7,9.4-6.8,15.3-9.1
		c5.8-2.3,12.2-3.5,19.1-3.5c8.3,0,15.7,1.6,22.1,4.8c6.4,3.2,11.3,7.7,14.9,13.4c3.6,5.7,5.4,12.3,5.4,19.8v80.1h-9.9v-25.2h0.9
		c-1.9,4.8-5.1,9.4-9.4,13.6c-4.4,4.2-9.7,7.7-15.8,10.3C814.9,241.5,808.1,242.8,800.6,242.8z"/>
	<path class="st0" d="M946,242.8c-11.1,0-21-2.9-29.7-8.7c-8.7-5.8-15.2-13.4-19.4-22.9l1.8-3.7v32.7h-9.9V76.7h9.9v80.8l-1.8-3.7
		c4.2-9.5,10.7-17.2,19.4-22.9c8.7-5.8,18.6-8.7,29.7-8.7c10.8,0,20.5,2.6,29.1,7.9c8.6,5.3,15.3,12.5,20.3,21.6
		c5,9.2,7.5,19.4,7.5,30.8s-2.5,21.7-7.5,30.7c-5,9.1-11.7,16.3-20.3,21.6C966.6,240.2,956.9,242.8,946,242.8z M946,232.9
		c8.9,0,16.9-2.2,23.8-6.6c7-4.4,12.4-10.4,16.5-18c4-7.6,6-16.2,6-25.9s-2-18.3-6-25.9c-4-7.6-9.5-13.6-16.5-18
		c-6.9-4.4-14.9-6.6-23.8-6.6c-8.8,0-16.7,2.2-23.8,6.6c-7.1,4.4-12.7,10.4-16.8,17.9c-4.1,7.5-6.2,16.2-6.2,26
		c0,9.7,2,18.3,6.2,25.9c4.1,7.6,9.7,13.6,16.8,18C929.3,230.8,937.3,232.9,946,232.9z"/>
	<path class="st0" d="M1066.1,242.8c-10.2,0-19.3-2.5-27.2-7.6c-7.9-5-13.8-12-17.8-21l9.2-4.2c3.8,7.3,8.8,13,15,17.1
		c6.2,4.1,13.1,6.1,20.7,6.1c8.2,0,15.1-2,20.7-6.1c5.6-4.1,8.4-9.5,8.4-16.2c0-3.5-0.8-6.7-2.4-9.4c-1.6-2.8-4-5.2-7.1-7.4
		c-3.2-2.1-7-3.8-11.5-4.9l-19.1-5.3c-9.4-2.5-16.4-6.3-21.1-11.5c-4.7-5.2-7-11.5-7-19c0-6.1,1.6-11.6,4.7-16.4
		c3.1-4.8,7.4-8.5,12.8-11.1c5.4-2.6,11.4-3.9,18-3.9c9.4,0,17.9,2.4,25.6,7.1c7.7,4.8,13,11,15.9,18.8l-9.7,4.4
		c-3.2-6.6-7.6-11.7-13.2-15.4c-5.6-3.7-11.8-5.5-18.7-5.5c-7.3,0-13.4,2-18.2,6.1c-4.8,4.1-7.2,9.3-7.2,15.6c0,3.2,0.7,6.1,2.2,8.7
		c1.5,2.6,3.7,4.8,6.6,6.7c2.9,1.9,6.5,3.4,10.8,4.6l19.3,5.5c9.5,2.6,16.8,6.7,22,12.2c5.1,5.5,7.7,12,7.7,19.6
		c0,6.2-1.8,11.7-5.3,16.6c-3.5,4.9-8.2,8.8-14.2,11.5C1080.3,241.4,1073.6,242.8,1066.1,242.8z"/>
</g>
<linearGradient id="SVGID_1_" gradientUnits="userSpaceOnUse" x1="44.0741" y1="192.4023" x2="121.2638" y2="192.4023">
	<stop  offset="0" style="stop-color:#1D47FF"/>
	<stop  offset="1" style="stop-color:#32F7AA"/>
</linearGradient>
<path class="st1" d="M44.8,208.3l25.3-38.1h25.2l25.3,38.1c1.8,2.7-0.1,6.4-3.4,6.4h-69C44.9,214.6,43,211,44.8,208.3z"/>
<path class="st0" d="M154.3,212.4L130.9,178l-14.6-21.6c-0.7-1-1.2-2.1-1.4-3.3c-0.2-0.8-0.2-1.4-0.2-1.6c0-10,0-48.9,0-70.4
	c0-8.1-6.6-14.6-14.6-14.6H65.2c-8.1,0-14.6,6.6-14.6,14.6v70.4c0,1.8-0.5,3.5-1.6,5l-38,55.9c-3.7,5.4-4.1,12.5-1,18.3
	c3.1,5.8,9.1,9.4,15.7,9.4h113.1c5.6,0,11.1-2.3,14.6-6.7C158.4,227.2,158.6,218.7,154.3,212.4z M140.2,222.7
	c-0.2,0.3-0.4,0.3-0.6,0.3H25.8c-0.2,0-0.4,0-0.6-0.3c-0.2-0.3-0.1-0.5,0-0.7l38-55.9c3-4.3,4.5-9.4,4.5-14.6V83.6h29.9v67.9
	c0,5.2,1.5,10.3,4.5,14.6l16.5,24.2l21.5,31.7C140.2,222.2,140.3,222.4,140.2,222.7z"/>
<path class="st0" d="M223.6,107.1c-6.9-13-16.8-23-29.5-30.1c-12.8-7.1-27.8-10.6-45-10.6H96.5l8.9,46l5,42.3V83.5h38.7
	c13.4,0,25,2.9,34.7,8.6c9.8,5.8,17.5,13.8,23,24.3c5.5,10.4,8.3,22.7,8.3,36.8c0,14.1-2.7,26.5-8.2,37c-5.4,10.5-13.1,18.6-23,24.4
	c-9.9,5.8-21.5,8.6-34.9,8.6l-20.2,17h20.2c17.3,0,32.3-3.6,45-10.7c12.7-7.2,22.6-17.3,29.5-30.3c6.9-13.1,10.4-28.4,10.4-45.9
	C234,135.5,230.5,120.1,223.6,107.1z"/>
<linearGradient id="SVGID_00000172400629457974078570000015608506453035022232_" gradientUnits="userSpaceOnUse" x1="64.6754" y1="56.7815" x2="105.6394" y2="15.8175">
	<stop  offset="0" style="stop-color:#1D47FF"/>
	<stop  offset="1" style="stop-color:#32F7AA"/>
</linearGradient>
<path style="fill:url(#SVGID_00000172400629457974078570000015608506453035022232_);" d="M101.3,11.5l4.8,17.3l17.3,4.8l-17.3,4.8
	l-4.8,17.3l-4.8-17.3l-17.3-4.8l17.3-4.8L101.3,11.5z M69.9,49.4L60,52.1l9.9,2.7l2.7,9.9l2.7-9.9l9.9-2.7l-9.9-2.7l-2.7-9.9
	L69.9,49.4z M71.2,18.7l-5.2,1.4l5.2,1.4l1.4,5.2l1.4-5.2l5.2-1.4l-5.2-1.4l-1.4-5.2L71.2,18.7z"/>
</svg>
