<?xml version="1.0" encoding="utf-8"?>
<!-- Generator: Adobe Illustrator 28.0.0, SVG Export Plug-In . SVG Version: 6.00 Build 0)  -->
<svg version="1.1" id="Layer_1" xmlns="http://www.w3.org/2000/svg" xmlns:xlink="http://www.w3.org/1999/xlink" x="0px" y="0px"
	 viewBox="0 0 242.7 261.5" style="enable-background:new 0 0 242.7 261.5;" xml:space="preserve">
<style type="text/css">
	.st0{fill:#FFFFFF;}
	.st1{fill:url(#SVGID_1_);}
	.st2{fill:url(#SVGID_00000142886997432183759210000000398949735324610695_);}
	.st3{fill:url(#SVGID_00000160172183764644501960000011791093980000571304_);}
	.st4{fill:url(#SVGID_00000150807856680358214380000009459773596941089180_);}
	.st5{fill:url(#SVGID_00000044868200870244649530000012322722235973942204_);}
	.st6{fill:url(#SVGID_00000093176923494636607050000007184112808111508405_);}
	.st7{fill:url(#SVGID_00000058574689325421179800000003182698355326444223_);}
	.st8{fill:url(#SVGID_00000119075369847606090730000014523660563050696355_);}
</style>
<path class="st0" d="M44.8,208.3l25.3-38.1h25.2l25.3,38.1c1.8,2.7-0.1,6.4-3.4,6.4h-69C44.9,214.6,43,211,44.8,208.3z"/>
<path class="st0" d="M154.3,212.4L130.9,178l-14.6-21.6c-0.7-1-1.2-2.1-1.4-3.3c-0.2-0.8-0.2-1.4-0.2-1.6c0-10,0-48.9,0-70.4
	c0-8.1-6.6-14.6-14.6-14.6H65.2c-8.1,0-14.6,6.6-14.6,14.6v70.4c0,1.8-0.5,3.5-1.6,5l-38,55.9c-3.7,5.4-4.1,12.5-1,18.3
	c3.1,5.8,9.1,9.4,15.7,9.4h113.1c5.6,0,11.1-2.3,14.6-6.7C158.4,227.2,158.6,218.7,154.3,212.4z M140.2,222.7
	c-0.2,0.3-0.4,0.3-0.6,0.3H25.8c-0.2,0-0.4,0-0.6-0.3c-0.2-0.3-0.1-0.5,0-0.7l38-55.9c3-4.3,4.5-9.4,4.5-14.6V83.6h29.9v67.9
	c0,5.2,1.5,10.3,4.5,14.6l16.5,24.2l21.5,31.7C140.2,222.2,140.3,222.4,140.2,222.7z"/>
<path class="st0" d="M223.6,107.1c-6.9-13-16.8-23-29.5-30.1c-12.8-7.1-27.8-10.6-45-10.6H96.5l8.9,46l5,42.3V83.5h38.7
	c13.4,0,25,2.9,34.7,8.6c9.8,5.8,17.5,13.8,23,24.3c5.5,10.4,8.3,22.7,8.3,36.8c0,14.1-2.7,26.5-8.2,37c-5.4,10.5-13.1,18.6-23,24.4
	c-9.9,5.8-21.5,8.6-34.9,8.6l-20.2,17h20.2c17.3,0,32.3-3.6,45-10.7c12.7-7.2,22.6-17.3,29.5-30.3c6.9-13.1,10.4-28.4,10.4-45.9
	C234,135.5,230.5,120.1,223.6,107.1z"/>
<path class="st0" d="M101.3,11.5l4.8,17.3l17.3,4.8l-17.3,4.8l-4.8,17.3l-4.8-17.3l-17.3-4.8l17.3-4.8L101.3,11.5z M69.9,49.4
	L60,52.1l9.9,2.7l2.7,9.9l2.7-9.9l9.9-2.7l-9.9-2.7l-2.7-9.9L69.9,49.4z M71.2,18.7l-5.2,1.4l5.2,1.4l1.4,5.2l1.4-5.2l5.2-1.4
	l-5.2-1.4l-1.4-5.2L71.2,18.7z"/>
</svg>
