<svg xmlns="http://www.w3.org/2000/svg" version="1.1" viewBox="-5.0 -15.0 110.0 135.0"
fill="white" stroke="#FFFFFF" stroke-width="0.5">
 <path d="m41.527 64.902c-11.062 2.0859-19.457 11.805-19.457 23.461v6.9492c0 0.86328 0.69922 1.5625 1.5625 1.5625h52.738c0.86328 0 1.5625-0.69922 1.5625-1.5625v-6.9492c0-11.656-8.3984-21.375-19.457-23.461 3.7891-2.6719 6.2734-7.0742 6.2734-12.051 0-8.1328-6.6172-14.746-14.746-14.746-8.1328 0-14.746 6.6172-14.746 14.746 0 4.9766 2.4844 9.3789 6.2734 12.051zm12.516 2.6992c11.449 0 20.766 9.3125 20.766 20.766v5.3867h-49.613v-5.3867c0-11.449 9.3164-20.766 20.766-20.766h8.0859zm-4.043-26.371c6.4102 0 11.621 5.2109 11.621 11.621 0 6.4102-5.2148 11.621-11.621 11.621s-11.621-5.2148-11.621-11.621 5.2148-11.621 11.621-11.621z"/>
 <path d="m19.328 35.531c8.9375 0 16.203-7.2695 16.203-16.203s-7.2656-16.203-16.203-16.203-16.203 7.2695-16.203 16.203c0 8.9375 7.2695 16.203 16.203 16.203zm0-29.281c7.2109 0 13.078 5.8672 13.078 13.078s-5.8672 13.078-13.078 13.078-13.078-5.8672-13.078-13.078 5.8672-13.078 13.078-13.078z"/>
 <path d="m80.672 35.531c8.9336 0 16.203-7.2695 16.203-16.203s-7.2695-16.203-16.203-16.203-16.203 7.2695-16.203 16.203c0 8.9375 7.2695 16.203 16.203 16.203zm0-29.281c7.2109 0 13.078 5.8672 13.078 13.078s-5.8672 13.078-13.078 13.078-13.078-5.8672-13.078-13.078 5.8672-13.078 13.078-13.078z"/>
 <path d="m17.789 23.398c0.30469 0.30469 0.70313 0.45703 1.1055 0.45703 0.39844 0 0.80078-0.15234 1.1055-0.45703l5.9297-5.9297c0.60937-0.60938 0.60937-1.5977 0-2.2109-0.60938-0.60937-1.5977-0.60937-2.2109 0l-4.8242 4.8242-2.8594-2.8594c-0.60938-0.60938-1.5977-0.60938-2.2109 0-0.60938 0.60938-0.60938 1.5977 0 2.2109z"/>
 <path d="m75.762 24.238c0.30469 0.30469 0.70312 0.45703 1.1055 0.45703 0.39844 0 0.80078-0.15234 1.1055-0.45703l2.7031-2.7031 2.7031 2.7031c0.30469 0.30469 0.70312 0.45703 1.1055 0.45703 0.39844 0 0.80078-0.15234 1.1055-0.45703 0.60938-0.60938 0.60938-1.5977 0-2.2109l-2.7031-2.7031 2.7031-2.7031c0.60938-0.60938 0.60938-1.5977 0-2.2109-0.60938-0.60938-1.5977-0.60938-2.2109 0l-2.7031 2.7031-2.7031-2.7031c-0.60938-0.60938-1.5977-0.60938-2.2109 0-0.60938 0.60938-0.60938 1.5977 0 2.2109l2.7031 2.7031-2.7031 2.7031c-0.60938 0.60938-0.60938 1.5977 0 2.2109z"/>
 <path d="m71.234 65.91c-0.60938 0.60938-0.60938 1.5977 0 2.2109 0.30469 0.30469 0.70312 0.45703 1.1055 0.45703 0.39844 0 0.80078-0.15234 1.1055-0.45703l8.3359-8.332c0.29297-0.29297 0.45703-0.69141 0.45703-1.1055v-14.781l2.5273 2.5273c0.30469 0.30469 0.70312 0.45703 1.1055 0.45703 0.39844 0 0.80078-0.15234 1.1055-0.45703 0.60938-0.60938 0.60938-1.5977 0-2.2109l-5.1914-5.1953c-0.14453-0.14453-0.3125-0.25781-0.50391-0.33594-0.1875-0.078125-0.39062-0.12109-0.60156-0.12109-0.21094 0-0.41406 0.042969-0.60156 0.12109-0.19141 0.078125-0.35938 0.19531-0.50391 0.33594l-5.1953 5.1953c-0.60938 0.60938-0.60938 1.5977 0 2.2109 0.60938 0.60937 1.5977 0.60937 2.2109 0l2.5273-2.5273v14.137l-7.875 7.875z"/>
 <path d="m18.223 59.785 8.3359 8.332c0.30469 0.30469 0.70312 0.45703 1.1055 0.45703 0.39844 0 0.80078-0.15234 1.1055-0.45703 0.60938-0.60938 0.60938-1.6016 0-2.2109l-7.875-7.875v-14.137l2.5273 2.5273c0.30469 0.30469 0.70312 0.45703 1.1055 0.45703 0.39844 0 0.80078-0.15234 1.1055-0.45703 0.60938-0.60938 0.60938-1.6016 0-2.2109l-5.1953-5.1953c-0.28125-0.28125-0.67188-0.46094-1.1055-0.46094-0.43359 0-0.82422 0.17578-1.1055 0.46094l-5.1914 5.1953c-0.60938 0.60937-0.60938 1.6016 0 2.2109s1.5977 0.60938 2.2109 0l2.5273-2.5273v14.781c0 0.41406 0.16406 0.8125 0.45703 1.1055z"/>
</svg>